<svg width="24" height="34" viewBox="0 0 24 34" fill="none" xmlns="http://www.w3.org/2000/svg">
<path d="M12.4123 28.2298C12.4123 28.0688 12.3461 27.9462 12.2136 27.862C12.081 27.7778 11.8612 27.7035 11.554 27.6392C11.247 27.5747 10.9906 27.493 10.7851 27.3938C10.3343 27.176 10.1089 26.8602 10.1089 26.4465C10.1089 26.0998 10.255 25.8099 10.5473 25.5771C10.8395 25.3444 11.2111 25.2279 11.6618 25.2279C12.1423 25.2279 12.5305 25.3469 12.8265 25.5845C13.1225 25.8223 13.2704 26.1307 13.2704 26.5097H12.3677C12.3677 26.3364 12.3034 26.192 12.1745 26.0769C12.0458 25.9617 11.8749 25.9041 11.6618 25.9041C11.4636 25.9041 11.3021 25.95 11.177 26.0416C11.0519 26.1333 10.9894 26.2559 10.9894 26.4094C10.9894 26.5481 11.0475 26.6558 11.164 26.7326C11.2804 26.8093 11.5157 26.8868 11.8698 26.9648C12.2241 27.0429 12.5021 27.1356 12.7039 27.2434C12.9058 27.3512 13.0557 27.4806 13.1535 27.6316C13.2513 27.7828 13.3002 27.966 13.3002 28.1815C13.3002 28.5431 13.1503 28.836 12.8507 29.0601C12.551 29.2843 12.1583 29.3964 11.673 29.3964C11.3435 29.3964 11.05 29.3369 10.7925 29.218C10.5349 29.0992 10.3343 28.9357 10.1906 28.7277C10.0469 28.5196 9.97514 28.2954 9.97514 28.0551H10.8519C10.8643 28.2682 10.9448 28.4323 11.0933 28.5475C11.242 28.6626 11.4389 28.7202 11.6841 28.7202C11.9219 28.7202 12.1026 28.6749 12.2264 28.5846C12.3503 28.4941 12.4123 28.3759 12.4123 28.2298ZM7.82776 28.6756C8.05315 28.6756 8.24011 28.61 8.38875 28.4787C8.53736 28.3474 8.61664 28.1852 8.62653 27.992H9.47726C9.46737 28.2422 9.38936 28.4756 9.24324 28.6924C9.09709 28.909 8.89901 29.0805 8.64883 29.2069C8.39864 29.3333 8.12865 29.3964 7.83891 29.3964C7.27665 29.3964 6.83088 29.2143 6.50145 28.8503C6.17209 28.4861 6.00731 27.9834 6.00731 27.3419V27.249C6.00731 26.6373 6.17086 26.1474 6.49781 25.7796C6.82463 25.4119 7.27052 25.2279 7.83515 25.2279C8.31323 25.2279 8.70265 25.3673 9.00357 25.6459C9.30461 25.9245 9.4625 26.2905 9.47726 26.7437H8.62653C8.61664 26.5134 8.53799 26.324 8.39062 26.1753C8.24323 26.0267 8.05565 25.9525 7.82776 25.9525C7.53549 25.9525 7.3101 26.0583 7.15157 26.27C6.99304 26.4819 6.91265 26.8032 6.91016 27.2342V27.3791C6.91016 27.815 6.98877 28.14 7.14608 28.3543C7.30334 28.5685 7.5306 28.6756 7.82776 28.6756ZM4.84215 28.3709C5.01056 28.3709 5.14054 28.4186 5.2322 28.514C5.32386 28.6093 5.36969 28.7288 5.36969 28.8726C5.36969 29.0137 5.32386 29.1308 5.2322 29.2236C5.14054 29.3165 5.01056 29.3629 4.84215 29.3629C4.68113 29.3629 4.55364 29.3171 4.45948 29.2254C4.3653 29.1338 4.31836 29.0162 4.31836 28.8726C4.31836 28.7288 4.36419 28.6093 4.45573 28.514C4.54739 28.4186 4.67622 28.3709 4.84215 28.3709ZM15.5033 28.1778L16.354 25.3023H17.2866L15.8934 29.3221H15.1095L13.7052 25.3023H14.6413L15.5033 28.1778Z" fill="black"/>
<path fill-rule="evenodd" clip-rule="evenodd" d="M15.6522 2.16379e-05H2.59544C1.16232 2.16379e-05 0 1.16155 0 2.59546V30.796C0 31.4846 0.273489 32.1442 0.759823 32.6312C0.759989 32.6313 0.760148 32.6315 0.760306 32.6316C1.24729 33.118 1.90683 33.3915 2.59544 33.3915H21.4046C22.8385 33.3915 24 32.23 24 30.7959V8.32615C24 8.32151 24 8.31688 23.9999 8.31224L23.9998 8.30978L23.9998 8.30825L23.9997 8.30618L23.9997 8.30462C23.9966 8.21678 23.9717 8.13443 23.9303 8.06282L23.9299 8.06204L23.9289 8.06031L23.9277 8.05826L23.9266 8.05648C23.9048 8.01983 23.8783 7.98552 23.8472 7.95446L16.0455 0.152764C15.9477 0.0549531 15.8151 0 15.6767 0H15.6522V2.88506e-05L15.6522 2.16379e-05ZM15.1306 1.04315H2.59543C1.73829 1.04315 1.04311 1.73786 1.04311 2.59546V30.796C1.04311 31.2079 1.2068 31.6024 1.49765 31.8938C1.78902 32.1846 2.1835 32.3483 2.59543 32.3483H21.4045C22.2622 32.3483 22.9569 31.6536 22.9569 30.7959V8.84481H17.7262C17.0381 8.84481 16.3781 8.57135 15.891 8.08499C15.8908 8.08482 15.8907 8.08465 15.8905 8.08447C15.4042 7.5975 15.1307 6.93737 15.1307 6.24922V1.04314L15.1306 1.04315ZM16.1738 1.75621L22.2192 7.8017H17.7262C17.3145 7.8017 16.9198 7.63798 16.6283 7.34711C16.3374 7.05574 16.1738 6.66089 16.1738 6.24923V1.75621Z" fill="black"/>
</svg>
