<svg width="24" height="34" viewBox="0 0 24 34" fill="none" xmlns="http://www.w3.org/2000/svg">
<path fill-rule="evenodd" clip-rule="evenodd" d="M15.6522 2.16379e-05H2.59544C1.16232 2.16379e-05 0 1.16155 0 2.59546V30.796C0 31.4846 0.273489 32.1442 0.759823 32.6312C0.759989 32.6313 0.760148 32.6315 0.760306 32.6316C1.24729 33.118 1.90683 33.3915 2.59544 33.3915H21.4046C22.8385 33.3915 24 32.23 24 30.7959V8.32615C24 8.32151 24 8.31688 23.9999 8.31224L23.9998 8.30978L23.9998 8.30825L23.9997 8.30618L23.9997 8.30462C23.9966 8.21678 23.9717 8.13443 23.9303 8.06282L23.9299 8.06204L23.9289 8.06031L23.9277 8.05826L23.9266 8.05648C23.9048 8.01983 23.8783 7.98552 23.8472 7.95446L16.0455 0.152764C15.9477 0.0549531 15.8151 0 15.6767 0H15.6522V2.88506e-05L15.6522 2.16379e-05ZM15.1306 1.04315H2.59543C1.73829 1.04315 1.04311 1.73786 1.04311 2.59546V30.796C1.04311 31.2079 1.2068 31.6024 1.49765 31.8938C1.78902 32.1846 2.1835 32.3483 2.59543 32.3483H21.4045C22.2622 32.3483 22.9569 31.6536 22.9569 30.7959V8.84481H17.7262C17.0381 8.84481 16.3781 8.57135 15.891 8.08499C15.8908 8.08482 15.8907 8.08465 15.8905 8.08447C15.4042 7.5975 15.1307 6.93737 15.1307 6.24922V1.04314L15.1306 1.04315ZM16.1738 1.75621L22.2192 7.8017H17.7262C17.3145 7.8017 16.9198 7.63798 16.6283 7.34711C16.3374 7.05574 16.1738 6.66089 16.1738 6.24923V1.75621Z" fill="black"/>
<path d="M4.49127 28.8914C4.63416 28.8914 4.74443 28.9318 4.82221 29.0128C4.89997 29.0936 4.93885 29.195 4.93885 29.317C4.93885 29.4367 4.89997 29.536 4.82221 29.6148C4.74443 29.6936 4.63416 29.733 4.49127 29.733C4.35466 29.733 4.2465 29.6941 4.16661 29.6163C4.0867 29.5386 4.04688 29.4388 4.04688 29.317C4.04688 29.195 4.08576 29.0936 4.16343 29.0128C4.24119 28.9318 4.3505 28.8914 4.49127 28.8914Z" fill="black"/>
<path d="M9.1058 25.4888C8.92181 25.2496 8.69342 25.0943 8.42068 25.0228C8.24316 24.9752 7.86219 24.9514 7.2777 24.9514H5.73535V29.7116H6.69648V27.916H7.32318C7.75829 27.916 8.09058 27.8932 8.32004 27.8477C8.48889 27.8109 8.65503 27.7357 8.81848 27.6221C8.98192 27.5084 9.11666 27.352 9.22275 27.1529C9.32884 26.9538 9.38186 26.708 9.38186 26.4158C9.3818 26.037 9.28978 25.728 9.1058 25.4888ZM8.28267 26.799C8.21018 26.9051 8.11006 26.983 7.9823 27.0328C7.85454 27.0826 7.60132 27.1075 7.22249 27.1075H6.69648V25.7567H7.1608C7.50716 25.7567 7.73769 25.7675 7.8524 25.7892C8.00824 25.8173 8.13707 25.8877 8.23877 26.0002C8.34053 26.1128 8.39141 26.2557 8.39141 26.4288C8.39147 26.5695 8.35516 26.6929 8.28267 26.799Z" fill="black"/>
<path d="M14.0027 26.2519C13.8988 25.9477 13.7473 25.6907 13.5482 25.4807C13.349 25.2707 13.1098 25.1246 12.8306 25.0423C12.6228 24.9817 12.3208 24.9514 11.9246 24.9514H10.168V29.7116H11.9766C12.3316 29.7116 12.6152 29.678 12.8273 29.6109C13.1109 29.52 13.336 29.3934 13.5027 29.231C13.7235 29.0167 13.8934 28.7364 14.0125 28.39C14.1099 28.1064 14.1586 27.7687 14.1586 27.3769C14.1586 26.931 14.1066 26.556 14.0027 26.2519ZM13.0676 28.2066C13.0026 28.4198 12.9187 28.573 12.8159 28.666C12.7131 28.7591 12.5838 28.8251 12.4279 28.8641C12.3089 28.8944 12.1151 28.9096 11.8467 28.9096H11.1291V25.7567H11.5609C11.9527 25.7567 12.2158 25.7718 12.35 25.8022C12.5296 25.8411 12.6779 25.9158 12.7948 26.0262C12.9117 26.1367 13.0026 26.2903 13.0676 26.4873C13.1325 26.6843 13.165 26.9668 13.165 27.3348C13.165 27.7028 13.1325 27.9933 13.0676 28.2066Z" fill="black"/>
<path d="M18.2428 25.7567V24.9514H14.9795V29.7116H15.9406V27.6887H17.9278V26.8834H15.9406V25.7567H18.2428Z" fill="black"/>
</svg>
